<svg width="28" height="21" viewBox="0 0 28 21" fill="none" xmlns="http://www.w3.org/2000/svg">
<g id="Group 759">
<path id="Vector" d="M14 13.1008C15.4362 13.1008 16.6005 11.9365 16.6005 10.5002C16.6005 9.06397 15.4362 7.89966 14 7.89966C12.5637 7.89966 11.3994 9.06397 11.3994 10.5002C11.3994 11.9365 12.5637 13.1008 14 13.1008Z" stroke="white" stroke-width="2" stroke-linecap="round" stroke-linejoin="round"/>
<path id="Vector_2" d="M19.5132 4.98692C20.2385 5.71148 20.814 6.57191 21.2066 7.51902C21.5992 8.46613 21.8013 9.48134 21.8013 10.5066C21.8013 11.5319 21.5992 12.5471 21.2066 13.4942C20.814 14.4413 20.2385 15.3017 19.5132 16.0263M8.48682 16.0133C7.76145 15.2887 7.18601 14.4283 6.7934 13.4812C6.40078 12.5341 6.1987 11.5189 6.1987 10.4936C6.1987 9.46833 6.40078 8.45313 6.7934 7.50602C7.18601 6.55891 7.76145 5.69848 8.48682 4.97391M23.193 1.30713C25.6306 3.74551 27 7.05222 27 10.5001C27 13.948 25.6306 17.2547 23.193 19.6931M4.80704 19.6931C2.36939 17.2547 1 13.948 1 10.5001C1 7.05222 2.36939 3.74551 4.80704 1.30713" stroke="white" stroke-width="2" stroke-linecap="round" stroke-linejoin="round"/>
</g>
</svg>
