<svg width="18" height="21" viewBox="0 0 18 21" fill="none" xmlns="http://www.w3.org/2000/svg">
<g id="Subtract">
<mask id="path-1-inside-1_3_501" fill="white">
<path fill-rule="evenodd" clip-rule="evenodd" d="M4.10777 0H0L0.947368 20.5263H17.0526L18 0H13.8923C13.809 2.6303 11.6505 4.73702 9.00001 4.73702C6.3495 4.73702 4.19103 2.6303 4.10777 0Z"/>
</mask>
<path d="M0 0V-2H-2.09444L-1.99787 0.0922095L0 0ZM4.10777 0L6.10677 -0.0632786L6.04546 -2H4.10777V0ZM0.947368 20.5263L-1.0505 20.6185L-0.962453 22.5263H0.947368V20.5263ZM17.0526 20.5263V22.5263H18.9625L19.0505 20.6185L17.0526 20.5263ZM18 0L19.9979 0.0922096L20.0944 -2H18V0ZM13.8923 0V-2H11.9546L11.8933 -0.0632786L13.8923 0ZM0 2H4.10777V-2H0V2ZM2.94524 20.4341L1.99787 -0.0922095L-1.99787 0.0922095L-1.0505 20.6185L2.94524 20.4341ZM17.0526 18.5263H0.947368V22.5263H17.0526V18.5263ZM16.0021 -0.0922096L15.0548 20.4341L19.0505 20.6185L19.9979 0.0922096L16.0021 -0.0922096ZM13.8923 2H18V-2H13.8923V2ZM11.8933 -0.0632786C11.8441 1.49107 10.5672 2.73702 9.00001 2.73702V6.73702C12.7339 6.73702 15.7739 3.76952 15.8913 0.0632786L11.8933 -0.0632786ZM9.00001 2.73702C7.43287 2.73702 6.15597 1.49107 6.10677 -0.0632786L2.10877 0.0632786C2.22609 3.76952 5.26612 6.73702 9.00001 6.73702V2.73702Z" fill="black" mask="url(#path-1-inside-1_3_501)"/>
</g>
</svg>
