<svg width="36" height="36" viewBox="0 0 36 36" fill="none" xmlns="http://www.w3.org/2000/svg">
<g id="Group 727">
<path id="Star 1" d="M18.9437 6.66927L18 3.9764L17.0563 6.66927L14.3608 14.3608L6.66927 17.0563L3.9764 18L6.66927 18.9437L14.3608 21.6392L17.0563 29.3307L18 32.0236L18.9437 29.3307L21.6392 21.6392L29.3307 18.9437L32.0236 18L29.3307 17.0563L21.6392 14.3608L18.9437 6.66927Z" stroke="black" stroke-width="2"/>
<path id="Star 2" d="M31.5 1L30.3322 4.33221L27 5.5L30.3322 6.66779L31.5 10L32.6678 6.66779L36 5.5L32.6678 4.33221L31.5 1Z" fill="#030303"/>
<path id="Star 3" d="M6.5 26L5.33221 29.3322L2 30.5L5.33221 31.6678L6.5 35L7.66779 31.6678L11 30.5L7.66779 29.3322L6.5 26Z" fill="#030303"/>
</g>
</svg>
