<svg width="24" height="25" viewBox="0 0 24 25" fill="none" xmlns="http://www.w3.org/2000/svg">
<path id="Vector" d="M14.5454 6.48186C14.3333 6.69825 14.2145 6.98918 14.2145 7.29218C14.2145 7.59518 14.3333 7.88611 14.5454 8.10249L16.3975 9.95464C16.6139 10.1667 16.9048 10.2855 17.2078 10.2855C17.5108 10.2855 17.8017 10.1667 18.0181 9.95464L22.3823 5.59052C22.9643 6.87682 23.1406 8.30997 22.8875 9.69898C22.6344 11.088 21.964 12.3669 20.9657 13.3652C19.9673 14.3636 18.6884 15.034 17.2994 15.287C15.9104 15.5401 14.4773 15.3639 13.191 14.7818L5.19201 22.7808C4.73149 23.2413 4.1069 23.5 3.45562 23.5C2.80435 23.5 2.17975 23.2413 1.71924 22.7808C1.25872 22.3202 1 21.6956 1 21.0444C1 20.3931 1.25872 19.7685 1.71924 19.308L9.7182 11.309C9.13612 10.0227 8.95988 8.58957 9.21296 7.20056C9.46604 5.81155 10.1364 4.53266 11.1348 3.53431C12.1331 2.53596 13.412 1.86558 14.801 1.6125C16.19 1.35942 17.6232 1.53566 18.9095 2.11774L14.5569 6.47029L14.5454 6.48186Z" stroke="white" stroke-width="2" stroke-linecap="round" stroke-linejoin="round"/>
</svg>
